<svg xmlns="http://www.w3.org/2000/svg" viewBox="0 0 700 470">
  <defs>
    <linearGradient id="wall" x1="0" x2="1"><stop stop-color="#d7d1c8"/><stop offset=".5" stop-color="#f0e7db"/><stop offset=".5" stop-color="#17111f"/><stop offset="1" stop-color="#2e2036"/></linearGradient>
    <linearGradient id="chair" x1="0" x2="1"><stop stop-color="#8f7b66"/><stop offset=".5" stop-color="#645242"/><stop offset=".5" stop-color="#121018"/><stop offset="1" stop-color="#2a172f"/></linearGradient>
  </defs>
  <rect width="700" height="470" rx="18" fill="url(#wall)"/>
  <rect y="320" width="700" height="150" fill="#2b2430" opacity=".28"/>
  <path d="M349 0v470" stroke="#fff" stroke-width="6" opacity=".95"/>
  <g opacity=".75">
    <rect x="45" y="92" width="238" height="26" rx="8" fill="#7b6551"/>
    <rect x="70" y="132" width="44" height="82" fill="#a58e75"/><rect x="130" y="142" width="38" height="72" fill="#806b56"/><rect x="184" y="126" width="54" height="88" fill="#b89b73"/>
    <rect x="57" y="236" width="214" height="34" rx="8" fill="#6f5a48"/>
    <circle cx="178" cy="316" r="58" fill="#333"/><rect x="150" y="270" width="88" height="98" rx="18" fill="#4d4038"/>
  </g>
  <g>
    <circle cx="528" cy="92" r="38" fill="#f4d21f" opacity=".18"/>
    <rect x="420" y="90" width="200" height="220" rx="14" fill="#0f0b17" stroke="#6d36df" stroke-width="4"/>
    <text x="520" y="170" text-anchor="middle" fill="#fff" font-family="Georgia" font-size="54" font-style="italic">Urban</text>
    <text x="520" y="222" text-anchor="middle" fill="#f4d21f" font-family="Arial" font-size="30" font-weight="700" letter-spacing="5">STYLE</text>
    <text x="520" y="255" text-anchor="middle" fill="#fff" font-family="Arial" font-size="18" letter-spacing="3">BARBERSHOP</text>
    <rect x="405" y="330" width="205" height="36" rx="18" fill="#6f3deb"/>
  </g>
  <rect x="52" y="417" width="93" height="30" rx="15" fill="#15121a" opacity=".85"/><rect x="551" y="417" width="105" height="30" rx="15" fill="#15121a" opacity=".85"/>
  <text x="98" y="438" text-anchor="middle" fill="#fff" font-family="Arial" font-size="18" font-weight="700">ANTES</text>
  <text x="604" y="438" text-anchor="middle" fill="#fff" font-family="Arial" font-size="18" font-weight="700">DESPUÉS</text>
</svg>
